<svg width="48" height="48" viewBox="0 0 48 48" fill="none" xmlns="http://www.w3.org/2000/svg">
<rect width="48" height="48" rx="8" fill="url(#paint0_linear_498_4884)"/>
<rect x="17.447" y="19.8167" width="2.51904" height="5.66784" rx="1.25952" fill="#606884"/>
<rect x="28.7827" y="19.8167" width="2.51904" height="5.66784" rx="1.25952" fill="#606884"/>
<path d="M14.5428 34.25H10.0005C8.89592 34.25 8.00049 33.3546 8.00049 32.25V13C8.00049 11.8954 8.89592 11 10.0005 11H38.1168C39.2213 11 40.1168 11.8954 40.1168 13V32.5112C40.1168 33.5083 39.3823 34.3531 38.3949 34.4918L18.7505 37.25L21.6611 32.6763C22.0282 32.0994 22.6646 31.75 23.3484 31.75H29.9183H35.586C36.6906 31.75 37.586 30.8546 37.586 29.75V15.5C37.586 14.3954 36.6906 13.5 35.586 13.5H12.5005C11.3959 13.5 10.5005 14.3954 10.5005 15.5V29.75C10.5005 30.8546 11.3959 31.75 12.5005 31.75H13.6255H14.5428C15.5144 31.75 16.1145 32.81 15.6146 33.6431C15.3887 34.0196 14.9818 34.25 14.5428 34.25Z" fill="#8D9BC8"/>
<path d="M29.9183 31.75H23.3484C22.6646 31.75 22.0282 32.0994 21.6611 32.6763L18.7505 37.25L38.3949 34.4918C39.3823 34.3531 40.1168 33.5083 40.1168 32.5112V13C40.1168 11.8954 39.2213 11 38.1168 11H10.0005C8.89592 11 8.00049 11.8954 8.00049 13V32.25C8.00049 33.3546 8.89592 34.25 10.0005 34.25H14.5428C14.9818 34.25 15.3887 34.0196 15.6146 33.6431C16.1145 32.81 15.5144 31.75 14.5428 31.75H13.6255H12.5005C11.3959 31.75 10.5005 30.8546 10.5005 29.75V15.5C10.5005 14.3954 11.3959 13.5 12.5005 13.5H35.586C36.6906 13.5 37.586 14.3954 37.586 15.5V29.75C37.586 30.8546 36.6906 31.75 35.586 31.75H29.9183ZM18.7505 37.25L29.9183 31.75" stroke="#8D9BC8" stroke-width="0.1"/>
<defs>
<linearGradient id="paint0_linear_498_4884" x1="-11.25" y1="-13" x2="56.5" y2="60.5" gradientUnits="userSpaceOnUse">
<stop offset="0.495192" stop-color="#EAEEF9"/>
<stop offset="1" stop-color="#F6F6FA"/>
</linearGradient>
</defs>
</svg>
