<svg width="96" height="96" viewBox="0 0 96 96" fill="none" xmlns="http://www.w3.org/2000/svg">
<rect width="96" height="96" rx="16" fill="url(#paint0_linear_499_5403)"/>
<rect x="34.8931" y="39.6333" width="5.03808" height="11.3357" rx="2.51904" fill="#52659A"/>
<rect x="57.5642" y="39.6333" width="5.03808" height="11.3357" rx="2.51904" fill="#52659A"/>
<path d="M29.0845 68.5H20C17.7909 68.5 16 66.7091 16 64.5V26C16 23.7909 17.7909 22 20 22H76.2326C78.4417 22 80.2326 23.7909 80.2326 26V65.0224C80.2326 67.0166 78.7636 68.7063 76.7888 68.9835L37.5 74.5L43.3211 65.3525C44.0554 64.1987 45.3282 63.5 46.6958 63.5H59.8356H71.1711C73.3803 63.5 75.1711 61.7091 75.1711 59.5V31C75.1711 28.7909 73.3803 27 71.1711 27H25C22.7909 27 21 28.7909 21 31V59.5C21 61.7091 22.7909 63.5 25 63.5H27.25H29.0845C31.0278 63.5 32.228 65.6199 31.2283 67.2862C30.7764 68.0393 29.9627 68.5 29.0845 68.5Z" fill="white"/>
<path d="M59.8356 63.5H46.6958C45.3282 63.5 44.0554 64.1987 43.3211 65.3525L37.5 74.5L76.7888 68.9835C78.7636 68.7063 80.2326 67.0166 80.2326 65.0224V26C80.2326 23.7909 78.4417 22 76.2326 22H20C17.7909 22 16 23.7909 16 26V64.5C16 66.7091 17.7909 68.5 20 68.5H29.0845C29.9627 68.5 30.7764 68.0393 31.2283 67.2862C32.228 65.6199 31.0278 63.5 29.0845 63.5H27.25H25C22.7909 63.5 21 61.7091 21 59.5V31C21 28.7909 22.7909 27 25 27H71.1711C73.3803 27 75.1711 28.7909 75.1711 31V59.5C75.1711 61.7091 73.3803 63.5 71.1711 63.5H59.8356ZM37.5 74.5L59.8356 63.5" stroke="white" stroke-width="0.2"/>
<defs>
<linearGradient id="paint0_linear_499_5403" x1="-7" y1="-5" x2="127" y2="133.5" gradientUnits="userSpaceOnUse">
<stop offset="0.0734295" stop-color="#EAEEF9"/>
<stop offset="1" stop-color="#606884"/>
</linearGradient>
</defs>
</svg>
