<svg width="96" height="96" viewBox="0 0 96 96" fill="none" xmlns="http://www.w3.org/2000/svg">
<rect width="96" height="96" rx="16" fill="url(#paint0_linear_498_4859)"/>
<rect x="34.8931" y="41.6333" width="5.03808" height="11.3357" rx="2.51904" fill="#A6B7E5"/>
<rect x="57.5642" y="41.6333" width="5.03808" height="11.3357" rx="2.51904" fill="#A6B7E5"/>
<path d="M29.0845 70.5H20C17.7909 70.5 16 68.7091 16 66.5V28C16 25.7909 17.7909 24 20 24H76.2326C78.4417 24 80.2326 25.7909 80.2326 28V67.0224C80.2326 69.0166 78.7636 70.7063 76.7888 70.9835L37.5 76.5L43.3211 67.3525C44.0554 66.1987 45.3282 65.5 46.6958 65.5H59.8356H71.1711C73.3803 65.5 75.1711 63.7091 75.1711 61.5V33C75.1711 30.7909 73.3803 29 71.1711 29H25C22.7909 29 21 30.7909 21 33V61.5C21 63.7091 22.7909 65.5 25 65.5H27.25H29.0845C31.0278 65.5 32.228 67.6199 31.2283 69.2862C30.7764 70.0393 29.9627 70.5 29.0845 70.5Z" fill="white"/>
<path d="M59.8356 65.5H46.6958C45.3282 65.5 44.0554 66.1987 43.3211 67.3525L37.5 76.5L76.7888 70.9835C78.7636 70.7063 80.2326 69.0166 80.2326 67.0224V28C80.2326 25.7909 78.4417 24 76.2326 24H20C17.7909 24 16 25.7909 16 28V66.5C16 68.7091 17.7909 70.5 20 70.5H29.0845C29.9627 70.5 30.7764 70.0393 31.2283 69.2862C32.228 67.6199 31.0278 65.5 29.0845 65.5H27.25H25C22.7909 65.5 21 63.7091 21 61.5V33C21 30.7909 22.7909 29 25 29H71.1711C73.3803 29 75.1711 30.7909 75.1711 33V61.5C75.1711 63.7091 73.3803 65.5 71.1711 65.5H59.8356ZM37.5 76.5L59.8356 65.5" stroke="white" stroke-width="0.2"/>
<defs>
<linearGradient id="paint0_linear_498_4859" x1="111.5" y1="117" x2="-3.87042e-07" y2="-8.5" gradientUnits="userSpaceOnUse">
<stop offset="0.0336598" stop-color="#434755"/>
<stop offset="0.467501" stop-color="#262626"/>
<stop offset="1" stop-color="#606884"/>
</linearGradient>
</defs>
</svg>
